<svg viewBox="0 0 24 24" xmlns="http://www.w3.org/2000/svg" id="Multiple-Circle--Streamline-Ultimate" height="24" width="24">
  <desc>
    Multiple Circle Streamline Icon: https://streamlinehq.com
  </desc>
  <path d="M9 3.75a3 3 0 1 0 6 0 3 3 0 1 0 -6 0Z" fill="none" stroke="#00303e" stroke-linecap="round" stroke-linejoin="round" stroke-width="1.5"></path>
  <path d="M15.75 14.25V12a3.75 3.75 0 0 0 -7.5 0v2.25h1.5l0.75 6h3l0.75 -6Z" fill="none" stroke="#00303e" stroke-linecap="round" stroke-linejoin="round" stroke-width="1.5"></path>
  <path d="M2.25 6a2.25 2.25 0 1 0 4.5 0 2.25 2.25 0 1 0 -4.5 0Z" fill="none" stroke="#00303e" stroke-linecap="round" stroke-linejoin="round" stroke-width="1.5"></path>
  <path d="M5.7 9.947A3.753 3.753 0 0 0 0.75 13.5v0.75h1.5l0.75 4.5h3l0.376 -2.256" fill="none" stroke="#00303e" stroke-linecap="round" stroke-linejoin="round" stroke-width="1.5"></path>
  <path d="M17.25 6a2.25 2.25 0 1 0 4.5 0 2.25 2.25 0 1 0 -4.5 0Z" fill="none" stroke="#00303e" stroke-linecap="round" stroke-linejoin="round" stroke-width="1.5"></path>
  <path d="M18.3 9.947a3.753 3.753 0 0 1 4.95 3.553v0.75h-1.5l-0.75 4.5h-3l-0.376 -2.256" fill="none" stroke="#00303e" stroke-linecap="round" stroke-linejoin="round" stroke-width="1.5"></path>
  <path d="M23.25 21c0 1.243 -5.037 2.25 -11.25 2.25S0.75 22.243 0.75 21" fill="none" stroke="#00303e" stroke-linecap="round" stroke-linejoin="round" stroke-width="1.5"></path>
</svg>