<svg viewBox="-0.75 -0.75 48 48" xmlns="http://www.w3.org/2000/svg" id="Network-Star--Streamline-Ultimate" height="48" width="48">
  <desc>
    Network Star Streamline Icon: https://streamlinehq.com
  </desc>
  <path d="m3.6773749999999996 33.908187500000004 14.730812499999999 0" fill="none" stroke="#043e5d" stroke-linecap="round" stroke-linejoin="round" stroke-width="1.5"></path>
  <path d="m4.867 10.6581875 36.7815 0" fill="none" stroke="#043e5d" stroke-linecap="round" stroke-linejoin="round" stroke-width="1.5"></path>
  <path d="m23.2519375 22.2831875 -22.261875 0" fill="none" stroke="#043e5d" stroke-linecap="round" stroke-linejoin="round" stroke-width="1.5"></path>
  <path d="M22.044875 45.5021875A22.28125 22.28125 0 1 1 45.53125 22.28125" fill="none" stroke="#043e5d" stroke-linecap="round" stroke-linejoin="round" stroke-width="1.5"></path>
  <path d="M21.8336875 1.0210625c-11.625 12.59375 -11.4138125 28.981125 0.2111875 44.481125" fill="none" stroke="#043e5d" stroke-linecap="round" stroke-linejoin="round" stroke-width="1.5"></path>
  <path d="M24.664375 1.0210625A31.246062499999997 31.246062499999997 0 0 1 32.9375 17.4375" fill="none" stroke="#043e5d" stroke-linecap="round" stroke-linejoin="round" stroke-width="1.5"></path>
  <path d="m35.278 23.114375 2.9798750000000003 6.916875h5.8125a1.4240625 1.4240625 0 0 1 1.0016875 2.4858124999999998l-5.0375000000000005 4.4872499999999995 2.79 6.4189375a1.5209375 1.5209375 0 0 1 -2.1641875 1.902625L33.90625 41.5264375l-6.7444375 3.7994375000000002a1.5209375 1.5209375 0 0 1 -2.1641875 -1.902625l2.79 -6.4189375 -5.0375000000000005 -4.4872499999999995a1.4221249999999999 1.4221249999999999 0 0 1 1.003625 -2.4858124999999998h5.8008750000000004l2.995375 -6.916875a1.55 1.55 0 0 1 2.7279999999999998 0Z" fill="none" stroke="#043e5d" stroke-linecap="round" stroke-linejoin="round" stroke-width="1.5"></path>
</svg>