<svg viewBox="-0.75 -0.75 48 48" xmlns="http://www.w3.org/2000/svg" id="Multiple-Users-3--Streamline-Ultimate" height="48" width="48">
  <desc>
    Multiple Users 3 Streamline Icon: https://streamlinehq.com
  </desc>
  <path d="m23.25 22.28125 0 4.84375" fill="none" stroke="#043e5d" stroke-linecap="round" stroke-linejoin="round" stroke-width="1.5"></path>
  <path d="m23.25 27.125 4.359375 4.359375" fill="none" stroke="#043e5d" stroke-linecap="round" stroke-linejoin="round" stroke-width="1.5"></path>
  <path d="m23.25 27.125 -4.359375 4.359375" fill="none" stroke="#043e5d" stroke-linecap="round" stroke-linejoin="round" stroke-width="1.5"></path>
  <path d="M18.890625 5.328125a4.359375 4.359375 0 1 0 8.71875 0 4.359375 4.359375 0 1 0 -8.71875 0Z" fill="none" stroke="#043e5d" stroke-linecap="round" stroke-linejoin="round" stroke-width="1.5"></path>
  <path d="M31.96875 18.40625a8.99775 8.99775 0 0 0 -17.4375 0Z" fill="none" stroke="#043e5d" stroke-linecap="round" stroke-linejoin="round" stroke-width="1.5"></path>
  <path d="M5.328125 32.453125a4.359375 4.359375 0 1 0 8.71875 0 4.359375 4.359375 0 1 0 -8.71875 0Z" fill="none" stroke="#043e5d" stroke-linecap="round" stroke-linejoin="round" stroke-width="1.5"></path>
  <path d="M18.40625 45.53125a8.99775 8.99775 0 0 0 -17.4375 0Z" fill="none" stroke="#043e5d" stroke-linecap="round" stroke-linejoin="round" stroke-width="1.5"></path>
  <path d="M32.453125 32.453125a4.359375 4.359375 0 1 0 8.71875 0 4.359375 4.359375 0 1 0 -8.71875 0Z" fill="none" stroke="#043e5d" stroke-linecap="round" stroke-linejoin="round" stroke-width="1.5"></path>
  <path d="M45.53125 45.53125a8.99775 8.99775 0 0 0 -17.4375 0Z" fill="none" stroke="#043e5d" stroke-linecap="round" stroke-linejoin="round" stroke-width="1.5"></path>
</svg>