<svg xmlns="http://www.w3.org/2000/svg" viewBox="0 0 24 24" id="Workflow-Teamwork-Increasing-Arrow--Streamline-Ultimate" height="24" width="24">
  <desc>
    Workflow Teamwork Increasing Arrow Streamline Icon: https://streamlinehq.com
  </desc>
  <defs></defs>
  <path d="M18.454 12.25s-3 -3 -3 -5.5h4.5l-8 -6 -8 6h4.5c0 2.5 -3 5.5 -3 5.5" fill="none" stroke="#00303e" stroke-linecap="round" stroke-linejoin="round" stroke-width="1.5"></path>
  <path d="M0.75 16.875a2.625 2.625 0 1 0 5.25 0 2.625 2.625 0 1 0 -5.25 0" fill="none" stroke="#00303e" stroke-linecap="round" stroke-linejoin="round" stroke-width="1.5"></path>
  <path d="M7.514 22.983A4.5 4.5 0 0 0 0.75 21.1" fill="none" stroke="#00303e" stroke-linecap="round" stroke-linejoin="round" stroke-width="1.5"></path>
  <path d="M18 16.875a2.625 2.625 0 1 0 5.25 0 2.625 2.625 0 1 0 -5.25 0" fill="none" stroke="#00303e" stroke-linecap="round" stroke-linejoin="round" stroke-width="1.5"></path>
  <path d="M16.486 22.983A4.5 4.5 0 0 1 23.25 21.1" fill="none" stroke="#00303e" stroke-linecap="round" stroke-linejoin="round" stroke-width="1.5"></path>
  <path d="M8.625 16.125a3.375 3.375 0 1 0 6.75 0 3.375 3.375 0 1 0 -6.75 0" fill="none" stroke="#00303e" stroke-linecap="round" stroke-linejoin="round" stroke-width="1.5"></path>
  <path d="M16.714 23.25a6.063 6.063 0 0 0 -9.429 0" fill="none" stroke="#00303e" stroke-linecap="round" stroke-linejoin="round" stroke-width="1.5"></path>
</svg>