<svg viewBox="0 0 24 24" xmlns="http://www.w3.org/2000/svg" id="Certified-Ribbon-1--Streamline-Ultimate" height="24" width="24">
  <desc>
    Certified Ribbon 1 Streamline Icon: https://streamlinehq.com
  </desc>
  <path d="m18 5.25 -5.47 5.47a0.749 0.749 0 0 1 -1.06 0L9.75 9" fill="none" stroke="#00303e" stroke-linecap="round" stroke-linejoin="round" stroke-width="1.5"></path>
  <path d="M4.717 13.152 0.75 18l3.75 0.75 1.5 4.5 3.99 -6.332" fill="none" stroke="#00303e" stroke-linecap="round" stroke-linejoin="round" stroke-width="1.5"></path>
  <path d="M19.283 13.152 23.25 18l-3.75 0.75 -1.5 4.5 -3.99 -6.332" fill="none" stroke="#00303e" stroke-linecap="round" stroke-linejoin="round" stroke-width="1.5"></path>
  <path d="m19.5 9.537 0.844 2.216a0.749 0.749 0 0 1 -0.29 0.895l-1.986 1.3 -0.62 2.29a0.75 0.75 0 0 1 -0.761 0.553l-2.369 -0.118 -1.847 1.488a0.752 0.752 0 0 1 -0.942 0L9.682 16.67l-2.369 0.118a0.75 0.75 0 0 1 -0.761 -0.553l-0.62 -2.29 -1.986 -1.3a0.749 0.749 0 0 1 -0.29 -0.895L4.5 9.537 3.656 7.32a0.75 0.75 0 0 1 0.29 -0.9l1.986 -1.3 0.62 -2.29a0.75 0.75 0 0 1 0.761 -0.553l2.369 0.123L11.529 0.916a0.752 0.752 0 0 1 0.942 0L14.318 2.4" fill="none" stroke="#00303e" stroke-linecap="round" stroke-linejoin="round" stroke-width="1.5"></path>
</svg>