<svg viewBox="-0.75 -0.75 48 48" xmlns="http://www.w3.org/2000/svg" id="Certified-Diploma-1--Streamline-Ultimate" height="48" width="48">
  <desc>
    Certified Diploma 1 Streamline Icon: https://streamlinehq.com
  </desc>
  <path d="M23.25 31.96875H2.90625a1.9375 1.9375 0 0 1 -1.9375 -1.9375v-27.125a1.9375 1.9375 0 0 1 1.9375 -1.9375h40.6875a1.9375 1.9375 0 0 1 1.9375 1.9375V17.4375" fill="none" stroke="#043e5d" stroke-linecap="round" stroke-linejoin="round" stroke-width="1.5"></path>
  <path d="m41.65625 33.065374999999996 0 12.465875 -5.8125 -4.84375 -5.8125 4.84375 0 -12.467812499999999" fill="none" stroke="#043e5d" stroke-linecap="round" stroke-linejoin="round" stroke-width="1.5"></path>
  <path d="M32.9375 27.125a2.90625 2.90625 0 1 0 5.8125 0 2.90625 2.90625 0 1 0 -5.8125 0Z" fill="none" stroke="#043e5d" stroke-linecap="round" stroke-linejoin="round" stroke-width="1.5"></path>
  <path d="M43.0531875 27.125a3.8614375 3.8614375 0 0 0 -3.6037500000000002 -6.2445625 3.8614375 3.8614375 0 0 0 -7.2075000000000005 0A3.8614375 3.8614375 0 0 0 28.6381875 27.125a3.863375 3.863375 0 0 0 3.6056875 6.2445625 3.8614375 3.8614375 0 0 0 7.2075000000000005 0A3.8614375 3.8614375 0 0 0 43.0531875 27.125Z" fill="none" stroke="#043e5d" stroke-linecap="round" stroke-linejoin="round" stroke-width="1.5"></path>
  <path d="M41.65625 15.5V10.65625a5.8125 5.8125 0 0 1 -5.8125 -5.8125h-25.1875a5.8125 5.8125 0 0 1 -5.8125 5.8125v11.625a5.8125 5.8125 0 0 1 5.8125 5.8125H23.25" fill="none" stroke="#043e5d" stroke-linecap="round" stroke-linejoin="round" stroke-width="1.5"></path>
</svg>