<svg viewBox="-0.75 -0.75 48 48" xmlns="http://www.w3.org/2000/svg" id="Presentation-Projector-Screen-Bars--Streamline-Ultimate" height="48" width="48">
  <desc>
    Presentation Projector Screen Bars Streamline Icon: https://streamlinehq.com
  </desc>
  <path d="M4.8515 4.84375h36.8125v32.9375h-36.8125z" fill="none" stroke="#043e5d" stroke-linecap="round" stroke-linejoin="round" stroke-width="1.5"></path>
  <path d="M21.320249999999998 43.59375a1.9375 1.9375 0 1 0 3.875 0 1.9375 1.9375 0 1 0 -3.875 0Z" fill="none" stroke="#043e5d" stroke-linecap="round" stroke-linejoin="round" stroke-width="1.5"></path>
  <path d="m23.257749999999998 37.78125 0 3.875" fill="none" stroke="#043e5d" stroke-linecap="round" stroke-linejoin="round" stroke-width="1.5"></path>
  <path d="m9.69525 31.96875 27.125 0" fill="none" stroke="#043e5d" stroke-linecap="round" stroke-linejoin="round" stroke-width="1.5"></path>
  <path d="M45.53125 2.90625a1.9375 1.9375 0 0 1 -1.9375 1.9375h-40.6875a1.9375 1.9375 0 0 1 0 -3.875h40.6875a1.9375 1.9375 0 0 1 1.9375 1.9375Z" fill="none" stroke="#043e5d" stroke-linecap="round" stroke-linejoin="round" stroke-width="1.5"></path>
  <path d="m2.914 37.78125 40.6875 0" fill="none" stroke="#043e5d" stroke-linecap="round" stroke-linejoin="round" stroke-width="1.5"></path>
  <path d="M11.625 24.21875h3.875a0.96875 0.96875 0 0 1 0.96875 0.96875v6.78125l0 0h-5.8125l0 0V25.1875a0.96875 0.96875 0 0 1 0.96875 -0.96875Z" fill="none" stroke="#043e5d" stroke-linecap="round" stroke-linejoin="round" stroke-width="1.5"></path>
  <path d="M21.3125 18.40625h3.875a0.96875 0.96875 0 0 1 0.96875 0.96875v12.59375l0 0h-5.8125l0 0V19.375a0.96875 0.96875 0 0 1 0.96875 -0.96875Z" fill="none" stroke="#043e5d" stroke-linecap="round" stroke-linejoin="round" stroke-width="1.5"></path>
  <path d="M31 12.59375h3.875a0.96875 0.96875 0 0 1 0.96875 0.96875v18.40625l0 0h-5.8125l0 0V13.5625a0.96875 0.96875 0 0 1 0.96875 -0.96875Z" fill="none" stroke="#043e5d" stroke-linecap="round" stroke-linejoin="round" stroke-width="1.5"></path>
</svg>