<svg xmlns="http://www.w3.org/2000/svg" viewBox="0 0 24 24" id="Travel-Luggage-1--Streamline-Ultimate" height="24" width="24">
  <desc>
    Travel Luggage 1 Streamline Icon: https://streamlinehq.com
  </desc>
  <g>
    <path d="M6 17.93a9 9 0 1 1 12.75 -8.18" fill="none" stroke="#00303e" stroke-linecap="round" stroke-linejoin="round" stroke-width="1.5"></path>
    <path d="m4 2.81 5.28 2a1.51 1.51 0 0 1 0.94 1.7l-0.28 1.56a1.51 1.51 0 0 1 -1.11 1.16l-2.08 0.52 -1.15 2.88A3 3 0 0 1 4.47 14l-1.83 1.27" fill="none" stroke="#00303e" stroke-linecap="round" stroke-linejoin="round" stroke-width="1.5"></path>
    <path d="m16 3.27 -1.47 2.92a1.48 1.48 0 0 0 -0.08 1.15L15 9" fill="none" stroke="#00303e" stroke-linecap="round" stroke-linejoin="round" stroke-width="1.5"></path>
    <g>
      <path d="M11.25 15h10.5s1.5 0 1.5 1.5v5.25s0 1.5 -1.5 1.5h-10.5s-1.5 0 -1.5 -1.5V16.5s0 -1.5 1.5 -1.5" fill="none" stroke="#00303e" stroke-linecap="round" stroke-linejoin="round" stroke-width="1.5"></path>
      <path d="m13.5 15 0 8.25" fill="none" stroke="#00303e" stroke-linecap="round" stroke-linejoin="round" stroke-width="1.5"></path>
      <path d="m19.5 15 0 8.25" fill="none" stroke="#00303e" stroke-linecap="round" stroke-linejoin="round" stroke-width="1.5"></path>
    </g>
    <path d="M14.25 15v-1.25a2.25 2.25 0 0 1 4.5 0V15" fill="none" stroke="#00303e" stroke-linecap="round" stroke-linejoin="round" stroke-width="1.5"></path>
  </g>
</svg>