<svg xmlns="http://www.w3.org/2000/svg" viewBox="-0.75 -0.75 48 48" id="Travel-Luggage-1--Streamline-Ultimate" height="48" width="48">
  <desc>
    Travel Luggage 1 Streamline Icon: https://streamlinehq.com
  </desc>
  <path d="M17.596375000000002 44.876374999999996a21.6709375 21.6709375 0 0 1 -2.7628749999999997 -0.9183749999999999A22.28125 22.28125 0 1 1 45.53125 23.321687500000003h0" fill="none" stroke="#043e5d" stroke-linecap="round" stroke-linejoin="round" stroke-width="1.5"></path>
  <path d="M1.3039375 19.446687500000003h11.787749999999999a5.8125 5.8125 0 0 1 4.111375 1.7030625l0.0484375 0.0484375a6.5080625 6.5080625 0 0 1 1.468625 6.9517500000000005l-0.48825 1.2651875000000001a8.5715 8.5715 0 0 1 -6.5874999999999995 5.366875l-6.800624999999999 1.1334374999999999m34.4119375 -28.09375h-11.237499999999999a4.359375 4.359375 0 0 0 0 8.71875h0.837a5.8125 5.8125 0 0 1 4.7178125 2.4160625000000002" fill="none" stroke="#043e5d" stroke-linecap="round" stroke-linejoin="round" stroke-width="1.5"></path>
  <path fill="none" stroke="#043e5d" stroke-linecap="round" stroke-linejoin="round" d="M26.640625 30.102937500000003h14.53125s4.359375 0 4.359375 4.359375v6.78125s0 4.359375 -4.359375 4.359375h-14.53125s-4.359375 0 -4.359375 -4.359375v-6.78125s0 -4.359375 4.359375 -4.359375" stroke-width="1.5"></path>
  <path d="M39.71875 28.165437500000003a3.875 3.875 0 0 0 -3.875 -3.875h-3.875a3.875 3.875 0 0 0 -3.875 3.875v1.9375h11.625zm-9.6875 1.9375v15.5m7.75 -15.5v15.5" fill="none" stroke="#043e5d" stroke-linecap="round" stroke-linejoin="round" stroke-width="1.5"></path>
</svg>